<svg width="325" height="107" viewBox="0 0 325 107" fill="none" xmlns="http://www.w3.org/2000/svg">
<path d="M19.832 42H10.2L0.0640001 4.256H9.136L12.608 18.144C13.3547 21.1307 13.9707 23.8373 14.456 26.264C14.9413 28.6533 15.24 30.3147 15.352 31.248L15.576 32.592C16.2107 29.68 17.48 24.864 19.384 18.144L23.136 4.816H29.52L33.216 18.144C34 20.944 34.6907 23.5573 35.288 25.984C35.9227 28.3733 36.352 30.072 36.576 31.08L36.912 32.592C37.3973 29.2693 38.4427 24.4347 40.048 18.088L43.52 4.256H52.312L42.232 42H32.6L29.296 30.072C28.512 27.1973 27.8587 24.7707 27.336 22.792C26.8507 20.8133 26.552 19.544 26.44 18.984L26.328 18.144C26.216 19.6747 25.208 23.6507 23.304 30.072L19.832 42ZM78.0074 40.376C76.066 41.6453 73.098 42.28 69.1034 42.28C64.4367 42.28 60.7967 40.936 58.1834 38.248C55.6074 35.5227 54.3194 32.032 54.3194 27.776C54.3194 23.2587 55.57 19.7307 58.0714 17.192C60.61 14.616 63.7274 13.328 67.4234 13.328C71.2314 13.328 74.2367 14.448 76.4394 16.688C78.642 18.8907 79.7434 22.1947 79.7434 26.6C79.7434 27.4587 79.594 28.9333 79.2954 31.024H62.6074C63.1674 32.592 64.138 33.8053 65.5194 34.664C66.9007 35.5227 68.562 35.952 70.5034 35.952C73.378 35.952 75.8794 35.1493 78.0074 33.544V40.376ZM67.7594 19.544C66.4527 19.544 65.2954 20.0293 64.2874 21C63.2794 21.9333 62.6074 23.3333 62.2714 25.2H72.1274V24.528C71.866 21.2053 70.41 19.544 67.7594 19.544ZM114.155 42H97.8588V4.256H112.531C116.675 4.256 119.829 5.24533 121.995 7.224C124.16 9.16533 125.243 11.648 125.243 14.672C125.243 16.6507 124.72 18.3867 123.675 19.88C122.629 21.3733 121.267 22.3813 119.587 22.904C123.955 24.2107 126.139 27.16 126.139 31.752C126.139 34.7387 125.056 37.2027 122.891 39.144C120.763 41.048 117.851 42 114.155 42ZM111.075 11.144H106.483V19.6H109.675C111.915 19.6 113.595 19.1893 114.715 18.368C115.872 17.5467 116.451 16.464 116.451 15.12C116.451 12.4693 114.659 11.144 111.075 11.144ZM111.075 26.376H106.483V35.112H111.019C115.275 35.112 117.403 33.656 117.403 30.744C117.403 27.832 115.293 26.376 111.075 26.376ZM156.245 42H148.069V37.464C146.576 40.6373 143.701 42.224 139.445 42.224C136.533 42.224 134.256 41.4213 132.613 39.816C131.008 38.1733 130.205 35.7653 130.205 32.592V13.608H138.381V30.744C138.381 34.0667 139.837 35.728 142.749 35.728C146.296 35.728 148.069 33.3573 148.069 28.616V13.608H156.245V42ZM170.425 42H162.249V13.608H170.425V42ZM169.697 2.016C170.631 2.94933 171.097 4.06933 171.097 5.376C171.097 6.68267 170.631 7.80267 169.697 8.736C168.764 9.66933 167.644 10.136 166.337 10.136C165.031 10.136 163.911 9.66933 162.977 8.736C162.044 7.80267 161.577 6.68267 161.577 5.376C161.577 4.06933 162.044 2.94933 162.977 2.016C163.911 1.08266 165.031 0.615999 166.337 0.615999C167.644 0.615999 168.764 1.08266 169.697 2.016ZM184.902 42H176.726V2.408H184.902V42ZM197.811 27.888C197.811 30.1653 198.408 32.0133 199.603 33.432C200.797 34.8133 202.253 35.504 203.971 35.504C205.837 35.504 207.349 34.776 208.507 33.32C209.664 31.864 210.243 29.9227 210.243 27.496C210.243 25.144 209.608 23.3147 208.339 22.008C207.107 20.7013 205.632 20.048 203.915 20.048C202.197 20.048 200.741 20.7387 199.547 22.12C198.389 23.5013 197.811 25.424 197.811 27.888ZM218.418 42H210.243V37.576C208.339 40.7493 205.501 42.336 201.731 42.336C198.035 42.336 195.067 40.8987 192.827 38.024C190.624 35.1493 189.523 31.7147 189.523 27.72C189.523 23.24 190.68 19.712 192.995 17.136C195.309 14.56 198.24 13.272 201.787 13.272C205.483 13.272 208.301 14.84 210.243 17.976V2.408H218.418V42ZM15.632 93.792H11.264V106H2.64V68.256H15.632C19.8133 68.256 23.192 69.432 25.768 71.784C28.3813 74.136 29.688 77.1227 29.688 80.744C29.688 84.888 28.3253 88.0987 25.6 90.376C22.912 92.6533 19.5893 93.792 15.632 93.792ZM14.624 75.144H11.264V86.96H14.12C18.6747 86.96 20.952 84.888 20.952 80.744C20.952 77.0107 18.8427 75.144 14.624 75.144ZM46.0747 75.256H41.8187V85.896H45.9067C49.64 85.896 51.5067 84.0667 51.5067 80.408C51.5067 78.8027 51.0214 77.552 50.0507 76.656C49.08 75.7227 47.7547 75.256 46.0747 75.256ZM41.8187 106H33.1947V68.256H46.2427C50.4614 68.256 53.84 69.376 56.3787 71.616C58.9547 73.856 60.2427 76.768 60.2427 80.352C60.2427 85.728 57.9467 89.4427 53.3547 91.496L62.9307 106H52.6267L44.4507 92.896H41.8187V106ZM101.929 87.016C101.929 92.8027 100.249 97.488 96.8891 101.072C93.5665 104.619 89.1238 106.392 83.5611 106.392C77.9611 106.392 73.4998 104.619 70.1771 101.072C66.8545 97.5253 65.1931 92.84 65.1931 87.016C65.1931 81.2293 66.8545 76.5627 70.1771 73.016C73.5371 69.432 77.9985 67.64 83.5611 67.64C89.1611 67.64 93.6225 69.4133 96.9451 72.96C100.268 76.5067 101.929 81.192 101.929 87.016ZM76.8971 78.616C75.2545 80.6693 74.4331 83.4693 74.4331 87.016C74.4331 90.5627 75.2545 93.3813 76.8971 95.472C78.5398 97.5253 80.7611 98.552 83.5611 98.552C86.3611 98.552 88.5825 97.5253 90.2251 95.472C91.8678 93.3813 92.6891 90.5627 92.6891 87.016C92.6891 83.4693 91.8678 80.6693 90.2251 78.616C88.5825 76.5253 86.3611 75.48 83.5611 75.48C80.7611 75.48 78.5398 76.5253 76.8971 78.616ZM136.124 106H119.828V68.256H134.5C138.644 68.256 141.798 69.2453 143.964 71.224C146.129 73.1653 147.212 75.648 147.212 78.672C147.212 80.6507 146.689 82.3867 145.644 83.88C144.598 85.3733 143.236 86.3813 141.556 86.904C145.924 88.2107 148.108 91.16 148.108 95.752C148.108 98.7387 147.025 101.203 144.86 103.144C142.732 105.048 139.82 106 136.124 106ZM133.044 75.144H128.452V83.6H131.644C133.884 83.6 135.564 83.1893 136.684 82.368C137.841 81.5467 138.42 80.464 138.42 79.12C138.42 76.4693 136.628 75.144 133.044 75.144ZM133.044 90.376H128.452V99.112H132.988C137.244 99.112 139.372 97.656 139.372 94.744C139.372 91.832 137.262 90.376 133.044 90.376ZM178.214 106H170.038V101.464C168.544 104.637 165.67 106.224 161.414 106.224C158.502 106.224 156.224 105.421 154.582 103.816C152.976 102.173 152.174 99.7653 152.174 96.592V77.608H160.35V94.744C160.35 98.0667 161.806 99.728 164.718 99.728C168.264 99.728 170.038 97.3573 170.038 92.616V77.608H178.214V106ZM203.314 97.432C203.314 100.232 202.306 102.397 200.29 103.928C198.274 105.459 195.605 106.224 192.282 106.224C188.847 106.224 185.973 105.645 183.658 104.488V97.208C186.234 99 188.959 99.896 191.834 99.896C193.887 99.896 194.914 99.2427 194.914 97.936C194.914 97.6 194.821 97.2827 194.634 96.984C194.447 96.6853 194.13 96.4053 193.682 96.144C193.234 95.8827 192.823 95.6773 192.45 95.528C192.077 95.3413 191.535 95.0987 190.826 94.8C190.117 94.5013 189.575 94.2587 189.202 94.072C185.431 92.28 183.546 89.592 183.546 86.008C183.546 83.2453 184.591 81.0987 186.682 79.568C188.81 78.0373 191.442 77.272 194.578 77.272C197.49 77.272 199.917 77.664 201.858 78.448V85.448C199.879 84.2907 197.565 83.712 194.914 83.712C193.943 83.712 193.197 83.9173 192.674 84.328C192.151 84.7013 191.89 85.1867 191.89 85.784C191.89 86.12 191.983 86.4373 192.17 86.736C192.357 87.0347 192.655 87.3147 193.066 87.576C193.514 87.8373 193.925 88.08 194.298 88.304C194.709 88.4907 195.25 88.7333 195.922 89.032C196.631 89.3307 197.191 89.592 197.602 89.816C199.319 90.712 200.701 91.7573 201.746 92.952C202.791 94.1093 203.314 95.6027 203.314 97.432ZM215.785 106H207.609V77.608H215.785V106ZM215.057 66.016C215.99 66.9493 216.457 68.0693 216.457 69.376C216.457 70.6827 215.99 71.8027 215.057 72.736C214.123 73.6693 213.003 74.136 211.697 74.136C210.39 74.136 209.27 73.6693 208.337 72.736C207.403 71.8027 206.937 70.6827 206.937 69.376C206.937 68.0693 207.403 66.9493 208.337 66.016C209.27 65.0827 210.39 64.616 211.697 64.616C213.003 64.616 214.123 65.0827 215.057 66.016ZM247.845 106H239.669V89.088C239.669 87.408 239.277 86.1387 238.493 85.28C237.709 84.384 236.608 83.936 235.189 83.936C233.696 83.936 232.445 84.5333 231.437 85.728C230.467 86.8853 229.981 88.64 229.981 90.992V106H221.805V77.608H229.981V82.424C230.691 80.856 231.773 79.624 233.229 78.728C234.723 77.7947 236.496 77.328 238.549 77.328C241.461 77.328 243.739 78.2053 245.381 79.96C247.024 81.6773 247.845 84.216 247.845 87.576V106ZM275.578 104.376C273.636 105.645 270.668 106.28 266.674 106.28C262.007 106.28 258.367 104.936 255.754 102.248C253.178 99.5227 251.89 96.032 251.89 91.776C251.89 87.2587 253.14 83.7307 255.642 81.192C258.18 78.616 261.298 77.328 264.994 77.328C268.802 77.328 271.807 78.448 274.01 80.688C276.212 82.8907 277.314 86.1947 277.314 90.6C277.314 91.4587 277.164 92.9333 276.866 95.024H260.178C260.738 96.592 261.708 97.8053 263.09 98.664C264.471 99.5227 266.132 99.952 268.074 99.952C270.948 99.952 273.45 99.1493 275.578 97.544V104.376ZM265.33 83.544C264.023 83.544 262.866 84.0293 261.858 85C260.85 85.9333 260.178 87.3333 259.842 89.2H269.698V88.528C269.436 85.2053 267.98 83.544 265.33 83.544ZM301.525 97.432C301.525 100.232 300.517 102.397 298.501 103.928C296.485 105.459 293.816 106.224 290.493 106.224C287.058 106.224 284.184 105.645 281.869 104.488V97.208C284.445 99 287.17 99.896 290.045 99.896C292.098 99.896 293.125 99.2427 293.125 97.936C293.125 97.6 293.032 97.2827 292.845 96.984C292.658 96.6853 292.341 96.4053 291.893 96.144C291.445 95.8827 291.034 95.6773 290.661 95.528C290.288 95.3413 289.746 95.0987 289.037 94.8C288.328 94.5013 287.786 94.2587 287.413 94.072C283.642 92.28 281.757 89.592 281.757 86.008C281.757 83.2453 282.802 81.0987 284.893 79.568C287.021 78.0373 289.653 77.272 292.789 77.272C295.701 77.272 298.128 77.664 300.069 78.448V85.448C298.09 84.2907 295.776 83.712 293.125 83.712C292.154 83.712 291.408 83.9173 290.885 84.328C290.362 84.7013 290.101 85.1867 290.101 85.784C290.101 86.12 290.194 86.4373 290.381 86.736C290.568 87.0347 290.866 87.3147 291.277 87.576C291.725 87.8373 292.136 88.08 292.509 88.304C292.92 88.4907 293.461 88.7333 294.133 89.032C294.842 89.3307 295.402 89.592 295.813 89.816C297.53 90.712 298.912 91.7573 299.957 92.952C301.002 94.1093 301.525 95.6027 301.525 97.432ZM324.916 97.432C324.916 100.232 323.908 102.397 321.892 103.928C319.876 105.459 317.206 106.224 313.884 106.224C310.449 106.224 307.574 105.645 305.26 104.488V97.208C307.836 99 310.561 99.896 313.436 99.896C315.489 99.896 316.516 99.2427 316.516 97.936C316.516 97.6 316.422 97.2827 316.236 96.984C316.049 96.6853 315.732 96.4053 315.284 96.144C314.836 95.8827 314.425 95.6773 314.052 95.528C313.678 95.3413 313.137 95.0987 312.428 94.8C311.718 94.5013 311.177 94.2587 310.804 94.072C307.033 92.28 305.148 89.592 305.148 86.008C305.148 83.2453 306.193 81.0987 308.284 79.568C310.412 78.0373 313.044 77.272 316.18 77.272C319.092 77.272 321.518 77.664 323.46 78.448V85.448C321.481 84.2907 319.166 83.712 316.516 83.712C315.545 83.712 314.798 83.9173 314.276 84.328C313.753 84.7013 313.492 85.1867 313.492 85.784C313.492 86.12 313.585 86.4373 313.772 86.736C313.958 87.0347 314.257 87.3147 314.668 87.576C315.116 87.8373 315.526 88.08 315.9 88.304C316.31 88.4907 316.852 88.7333 317.524 89.032C318.233 89.3307 318.793 89.592 319.204 89.816C320.921 90.712 322.302 91.7573 323.348 92.952C324.393 94.1093 324.916 95.6027 324.916 97.432Z" fill="#333333"/>
</svg>
